<?xml version="1.0" encoding="UTF-8"?>
<!DOCTYPE svg PUBLIC "-//W3C//DTD SVG 1.1//EN" "http://www.w3.org/Graphics/SVG/1.1/DTD/svg11.dtd">
<svg version="1.2" width="139.72mm" height="101.62mm" viewBox="3540 2271 13972 10162" preserveAspectRatio="xMidYMid" fill-rule="evenodd" stroke-width="28.222" stroke-linejoin="round" xmlns="http://www.w3.org/2000/svg" xmlns:ooo="http://xml.openoffice.org/svg/export" xmlns:xlink="http://www.w3.org/1999/xlink" xmlns:presentation="http://sun.com/xmlns/staroffice/presentation" xmlns:smil="http://www.w3.org/2001/SMIL20/" xmlns:anim="urn:oasis:names:tc:opendocument:xmlns:animation:1.0" xml:space="preserve">
 <defs class="ClipPathGroup">
  <clipPath id="presentation_clip_path" clipPathUnits="userSpaceOnUse">
   <rect x="3540" y="2271" width="13972" height="10162"/>
  </clipPath>
  <clipPath id="presentation_clip_path_shrink" clipPathUnits="userSpaceOnUse">
   <rect x="3553" y="2281" width="13945" height="10142"/>
  </clipPath>
 </defs>
 <defs class="TextShapeIndex">
  <g ooo:slide="id1" ooo:id-list="id3 id4 id5 id6 id7 id8 id9 id10 id11 id12 id13 id14"/>
 </defs>
 <defs class="EmbeddedBulletChars">
  <g id="bullet-char-template-57356" transform="scale(0.00048828125,-0.00048828125)">
   <path d="M 580,1141 L 1163,571 580,0 -4,571 580,1141 Z"/>
  </g>
  <g id="bullet-char-template-57354" transform="scale(0.00048828125,-0.00048828125)">
   <path d="M 8,1128 L 1137,1128 1137,0 8,0 8,1128 Z"/>
  </g>
  <g id="bullet-char-template-10146" transform="scale(0.00048828125,-0.00048828125)">
   <path d="M 174,0 L 602,739 174,1481 1456,739 174,0 Z M 1358,739 L 309,1346 659,739 1358,739 Z"/>
  </g>
  <g id="bullet-char-template-10132" transform="scale(0.00048828125,-0.00048828125)">
   <path d="M 2015,739 L 1276,0 717,0 1260,543 174,543 174,936 1260,936 717,1481 1274,1481 2015,739 Z"/>
  </g>
  <g id="bullet-char-template-10007" transform="scale(0.00048828125,-0.00048828125)">
   <path d="M 0,-2 C -7,14 -16,27 -25,37 L 356,567 C 262,823 215,952 215,954 215,979 228,992 255,992 264,992 276,990 289,987 310,991 331,999 354,1012 L 381,999 492,748 772,1049 836,1024 860,1049 C 881,1039 901,1025 922,1006 886,937 835,863 770,784 769,783 710,716 594,584 L 774,223 C 774,196 753,168 711,139 L 727,119 C 717,90 699,76 672,76 641,76 570,178 457,381 L 164,-76 C 142,-110 111,-127 72,-127 30,-127 9,-110 8,-76 1,-67 -2,-52 -2,-32 -2,-23 -1,-13 0,-2 Z"/>
  </g>
  <g id="bullet-char-template-10004" transform="scale(0.00048828125,-0.00048828125)">
   <path d="M 285,-33 C 182,-33 111,30 74,156 52,228 41,333 41,471 41,549 55,616 82,672 116,743 169,778 240,778 293,778 328,747 346,684 L 369,508 C 377,444 397,411 428,410 L 1163,1116 C 1174,1127 1196,1133 1229,1133 1271,1133 1292,1118 1292,1087 L 1292,965 C 1292,929 1282,901 1262,881 L 442,47 C 390,-6 338,-33 285,-33 Z"/>
  </g>
  <g id="bullet-char-template-9679" transform="scale(0.00048828125,-0.00048828125)">
   <path d="M 813,0 C 632,0 489,54 383,161 276,268 223,411 223,592 223,773 276,916 383,1023 489,1130 632,1184 813,1184 992,1184 1136,1130 1245,1023 1353,916 1407,772 1407,592 1407,412 1353,268 1245,161 1136,54 992,0 813,0 Z"/>
  </g>
  <g id="bullet-char-template-8226" transform="scale(0.00048828125,-0.00048828125)">
   <path d="M 346,457 C 273,457 209,483 155,535 101,586 74,649 74,723 74,796 101,859 155,911 209,963 273,989 346,989 419,989 480,963 531,910 582,859 608,796 608,723 608,648 583,586 532,535 482,483 420,457 346,457 Z"/>
  </g>
  <g id="bullet-char-template-8211" transform="scale(0.00048828125,-0.00048828125)">
   <path d="M -4,459 L 1135,459 1135,606 -4,606 -4,459 Z"/>
  </g>
  <g id="bullet-char-template-61548" transform="scale(0.00048828125,-0.00048828125)">
   <path d="M 173,740 C 173,903 231,1043 346,1159 462,1274 601,1332 765,1332 928,1332 1067,1274 1183,1159 1299,1043 1357,903 1357,740 1357,577 1299,437 1183,322 1067,206 928,148 765,148 601,148 462,206 346,322 231,437 173,577 173,740 Z"/>
  </g>
 </defs>
 <defs class="TextEmbeddedBitmaps"/>
 <g class="SlideGroup">
  <g>
   <g id="container-id1">
    <g id="id1" class="Slide" clip-path="url(#presentation_clip_path)">
     <g class="Page">
      <g class="com.sun.star.drawing.CustomShape">
       <g id="id3">
        <rect class="BoundingBox" stroke="none" fill="none" x="8620" y="2270" width="3814" height="2544"/>
        <path fill="rgb(203,60,51)" stroke="none" d="M 9044,2271 C 8832,2271 8621,2482 8621,2694 L 8621,4388 C 8621,4600 8832,4812 9044,4812 L 12008,4812 C 12220,4812 12432,4600 12432,4388 L 12432,2694 C 12432,2482 12220,2271 12008,2271 L 9044,2271 Z"/>
        <path fill="none" stroke="rgb(52,101,164)" d="M 9044,2271 C 8832,2271 8621,2482 8621,2694 L 8621,4388 C 8621,4600 8832,4812 9044,4812 L 12008,4812 C 12220,4812 12432,4600 12432,4388 L 12432,2694 C 12432,2482 12220,2271 12008,2271 L 9044,2271 Z"/>
       </g>
      </g>
      <g class="com.sun.star.drawing.CustomShape">
       <g id="id4">
        <rect class="BoundingBox" stroke="none" fill="none" x="3540" y="9890" width="3814" height="2544"/>
        <path fill="rgb(149,88,178)" stroke="none" d="M 3964,9891 C 3752,9891 3541,10102 3541,10314 L 3541,12008 C 3541,12220 3752,12432 3964,12432 L 6928,12432 C 7140,12432 7352,12220 7352,12008 L 7352,10314 C 7352,10102 7140,9891 6928,9891 L 3964,9891 Z"/>
        <path fill="none" stroke="rgb(52,101,164)" d="M 3964,9891 C 3752,9891 3541,10102 3541,10314 L 3541,12008 C 3541,12220 3752,12432 3964,12432 L 6928,12432 C 7140,12432 7352,12220 7352,12008 L 7352,10314 C 7352,10102 7140,9891 6928,9891 L 3964,9891 Z"/>
       </g>
      </g>
      <g class="com.sun.star.drawing.CustomShape">
       <g id="id5">
        <rect class="BoundingBox" stroke="none" fill="none" x="8620" y="9890" width="3814" height="2544"/>
        <path fill="rgb(149,88,178)" stroke="none" d="M 9044,9891 C 8832,9891 8621,10102 8621,10314 L 8621,12008 C 8621,12220 8832,12432 9044,12432 L 12008,12432 C 12220,12432 12432,12220 12432,12008 L 12432,10314 C 12432,10102 12220,9891 12008,9891 L 9044,9891 Z"/>
        <path fill="none" stroke="rgb(52,101,164)" d="M 9044,9891 C 8832,9891 8621,10102 8621,10314 L 8621,12008 C 8621,12220 8832,12432 9044,12432 L 12008,12432 C 12220,12432 12432,12220 12432,12008 L 12432,10314 C 12432,10102 12220,9891 12008,9891 L 9044,9891 Z"/>
       </g>
      </g>
      <g class="com.sun.star.drawing.CustomShape">
       <g id="id6">
        <rect class="BoundingBox" stroke="none" fill="none" x="13700" y="9890" width="3814" height="2544"/>
        <path fill="rgb(149,88,178)" stroke="none" d="M 14124,9891 C 13912,9891 13701,10102 13701,10314 L 13701,12008 C 13701,12220 13912,12432 14124,12432 L 17088,12432 C 17300,12432 17512,12220 17512,12008 L 17512,10314 C 17512,10102 17300,9891 17088,9891 L 14124,9891 Z"/>
        <path fill="none" stroke="rgb(52,101,164)" d="M 14124,9891 C 13912,9891 13701,10102 13701,10314 L 13701,12008 C 13701,12220 13912,12432 14124,12432 L 17088,12432 C 17300,12432 17512,12220 17512,12008 L 17512,10314 C 17512,10102 17300,9891 17088,9891 L 14124,9891 Z"/>
       </g>
      </g>
      <g class="com.sun.star.drawing.CustomShape">
       <g id="id7">
        <rect class="BoundingBox" stroke="none" fill="none" x="6080" y="6080" width="3814" height="2544"/>
        <path fill="rgb(56,152,38)" stroke="none" d="M 6504,6081 C 6292,6081 6081,6292 6081,6504 L 6081,8198 C 6081,8410 6292,8622 6504,8622 L 9468,8622 C 9680,8622 9892,8410 9892,8198 L 9892,6504 C 9892,6292 9680,6081 9468,6081 L 6504,6081 Z"/>
        <path fill="none" stroke="rgb(52,101,164)" d="M 6504,6081 C 6292,6081 6081,6292 6081,6504 L 6081,8198 C 6081,8410 6292,8622 6504,8622 L 9468,8622 C 9680,8622 9892,8410 9892,8198 L 9892,6504 C 9892,6292 9680,6081 9468,6081 L 6504,6081 Z"/>
       </g>
      </g>
      <g class="com.sun.star.drawing.CustomShape">
       <g id="id8">
        <rect class="BoundingBox" stroke="none" fill="none" x="11160" y="6080" width="3814" height="2544"/>
        <path fill="rgb(56,152,38)" stroke="none" d="M 11584,6081 C 11372,6081 11161,6292 11161,6504 L 11161,8198 C 11161,8410 11372,8622 11584,8622 L 14548,8622 C 14760,8622 14972,8410 14972,8198 L 14972,6504 C 14972,6292 14760,6081 14548,6081 L 11584,6081 Z"/>
        <path fill="none" stroke="rgb(52,101,164)" d="M 11584,6081 C 11372,6081 11161,6292 11161,6504 L 11161,8198 C 11161,8410 11372,8622 11584,8622 L 14548,8622 C 14760,8622 14972,8410 14972,8198 L 14972,6504 C 14972,6292 14760,6081 14548,6081 L 11584,6081 Z"/>
       </g>
      </g>
      <g class="com.sun.star.drawing.ConnectorShape">
       <g id="id9">
        <rect class="BoundingBox" stroke="none" fill="none" x="7880" y="3435" width="848" height="2753"/>
        <path fill="none" stroke="rgb(64,99,216)" stroke-width="212" stroke-linejoin="round" d="M 8621,3541 L 7986,3541 7986,6081"/>
       </g>
      </g>
      <g class="com.sun.star.drawing.ConnectorShape">
       <g id="id10">
        <rect class="BoundingBox" stroke="none" fill="none" x="12325" y="3435" width="848" height="2753"/>
        <path fill="none" stroke="rgb(64,99,216)" stroke-width="212" stroke-linejoin="round" d="M 12431,3541 L 13066,3541 13066,6081"/>
       </g>
      </g>
      <g class="com.sun.star.drawing.ConnectorShape">
       <g id="id11">
        <rect class="BoundingBox" stroke="none" fill="none" x="9785" y="7245" width="1483" height="213"/>
        <path fill="none" stroke="rgb(64,99,216)" stroke-width="212" stroke-linejoin="round" d="M 9891,7351 L 11161,7351"/>
       </g>
      </g>
      <g class="com.sun.star.drawing.ConnectorShape">
       <g id="id12">
        <rect class="BoundingBox" stroke="none" fill="none" x="10420" y="7245" width="213" height="2753"/>
        <path fill="none" stroke="rgb(64,99,216)" stroke-width="212" stroke-linejoin="round" d="M 10526,7351 L 10526,9891"/>
       </g>
      </g>
      <g class="com.sun.star.drawing.ConnectorShape">
       <g id="id13">
        <rect class="BoundingBox" stroke="none" fill="none" x="5340" y="7245" width="848" height="2753"/>
        <path fill="none" stroke="rgb(64,99,216)" stroke-width="212" stroke-linejoin="round" d="M 6081,7351 L 5446,7351 5446,9891"/>
       </g>
      </g>
      <g class="com.sun.star.drawing.ConnectorShape">
       <g id="id14">
        <rect class="BoundingBox" stroke="none" fill="none" x="14865" y="7245" width="848" height="2753"/>
        <path fill="none" stroke="rgb(64,99,216)" stroke-width="212" stroke-linejoin="round" d="M 14971,7351 L 15606,7351 15606,9891"/>
       </g>
      </g>
     </g>
    </g>
   </g>
  </g>
 </g>
</svg>